<svg width="392" height="51" viewBox="0 0 392 51" fill="none" xmlns="http://www.w3.org/2000/svg">
<path d="M13.6 4.304C17.152 4.304 20.256 5.008 22.912 6.416C25.568 7.824 27.616 9.808 29.056 12.368C30.528 14.896 31.264 17.824 31.264 21.152C31.264 24.448 30.528 27.376 29.056 29.936C27.616 32.496 25.552 34.48 22.864 35.888C20.208 37.296 17.12 38 13.6 38H0.976V4.304H13.6ZM13.072 30.896C16.176 30.896 18.592 30.048 20.32 28.352C22.048 26.656 22.912 24.256 22.912 21.152C22.912 18.048 22.048 15.632 20.32 13.904C18.592 12.176 16.176 11.312 13.072 11.312H9.184V30.896H13.072ZM61.099 24.176C61.099 24.944 61.051 25.744 60.955 26.576H42.379C42.507 28.24 43.035 29.52 43.963 30.416C44.923 31.28 46.091 31.712 47.467 31.712C49.515 31.712 50.939 30.848 51.739 29.12H60.475C60.027 30.88 59.211 32.464 58.027 33.872C56.875 35.28 55.419 36.384 53.659 37.184C51.899 37.984 49.931 38.384 47.755 38.384C45.131 38.384 42.795 37.824 40.747 36.704C38.699 35.584 37.099 33.984 35.947 31.904C34.795 29.824 34.219 27.392 34.219 24.608C34.219 21.824 34.779 19.392 35.899 17.312C37.051 15.232 38.651 13.632 40.699 12.512C42.747 11.392 45.099 10.832 47.755 10.832C50.347 10.832 52.651 11.376 54.667 12.464C56.683 13.552 58.251 15.104 59.371 17.12C60.523 19.136 61.099 21.488 61.099 24.176ZM52.699 22.016C52.699 20.608 52.219 19.488 51.259 18.656C50.299 17.824 49.099 17.408 47.659 17.408C46.283 17.408 45.115 17.808 44.155 18.608C43.227 19.408 42.651 20.544 42.427 22.016H52.699ZM63.7971 24.56C63.7971 21.808 64.3091 19.392 65.3331 17.312C66.3891 15.232 67.8131 13.632 69.6051 12.512C71.3971 11.392 73.3971 10.832 75.6051 10.832C77.4931 10.832 79.1411 11.216 80.5491 11.984C81.9891 12.752 83.0931 13.76 83.8611 15.008V11.216H92.0691V38H83.8611V34.208C83.0611 35.456 81.9411 36.464 80.5011 37.232C79.0931 38 77.4451 38.384 75.5571 38.384C73.3811 38.384 71.3971 37.824 69.6051 36.704C67.8131 35.552 66.3891 33.936 65.3331 31.856C64.3091 29.744 63.7971 27.312 63.7971 24.56ZM83.8611 24.608C83.8611 22.56 83.2851 20.944 82.1331 19.76C81.0131 18.576 79.6371 17.984 78.0051 17.984C76.3731 17.984 74.9811 18.576 73.8291 19.76C72.7091 20.912 72.1491 22.512 72.1491 24.56C72.1491 26.608 72.7091 28.24 73.8291 29.456C74.9811 30.64 76.3731 31.232 78.0051 31.232C79.6371 31.232 81.0131 30.64 82.1331 29.456C83.2851 28.272 83.8611 26.656 83.8611 24.608ZM106.215 2.48V38H98.0073V2.48H106.215ZM123.06 38.384C120.724 38.384 118.644 37.984 116.82 37.184C114.996 36.384 113.556 35.296 112.5 33.92C111.444 32.512 110.852 30.944 110.724 29.216H118.836C118.932 30.144 119.364 30.896 120.132 31.472C120.9 32.048 121.844 32.336 122.964 32.336C123.988 32.336 124.772 32.144 125.316 31.76C125.892 31.344 126.18 30.816 126.18 30.176C126.18 29.408 125.78 28.848 124.98 28.496C124.18 28.112 122.884 27.696 121.092 27.248C119.172 26.8 117.572 26.336 116.292 25.856C115.012 25.344 113.908 24.56 112.98 23.504C112.052 22.416 111.588 20.96 111.588 19.136C111.588 17.6 112.004 16.208 112.836 14.96C113.7 13.68 114.948 12.672 116.58 11.936C118.244 11.2 120.212 10.832 122.484 10.832C125.844 10.832 128.484 11.664 130.404 13.328C132.356 14.992 133.476 17.2 133.764 19.952H126.18C126.052 19.024 125.636 18.288 124.932 17.744C124.26 17.2 123.364 16.928 122.244 16.928C121.284 16.928 120.548 17.12 120.036 17.504C119.524 17.856 119.268 18.352 119.268 18.992C119.268 19.76 119.668 20.336 120.468 20.72C121.3 21.104 122.58 21.488 124.308 21.872C126.292 22.384 127.908 22.896 129.156 23.408C130.404 23.888 131.492 24.688 132.42 25.808C133.38 26.896 133.876 28.368 133.908 30.224C133.908 31.792 133.46 33.2 132.564 34.448C131.7 35.664 130.436 36.624 128.772 37.328C127.14 38.032 125.236 38.384 123.06 38.384ZM161.293 38.384C158.669 38.384 156.301 37.824 154.189 36.704C152.109 35.584 150.461 33.984 149.245 31.904C148.061 29.824 147.469 27.392 147.469 24.608C147.469 21.856 148.077 19.44 149.293 17.36C150.509 15.248 152.173 13.632 154.285 12.512C156.397 11.392 158.765 10.832 161.389 10.832C164.013 10.832 166.381 11.392 168.493 12.512C170.605 13.632 172.269 15.248 173.485 17.36C174.701 19.44 175.309 21.856 175.309 24.608C175.309 27.36 174.685 29.792 173.437 31.904C172.221 33.984 170.541 35.584 168.397 36.704C166.285 37.824 163.917 38.384 161.293 38.384ZM161.293 31.28C162.861 31.28 164.189 30.704 165.277 29.552C166.397 28.4 166.957 26.752 166.957 24.608C166.957 22.464 166.413 20.816 165.325 19.664C164.269 18.512 162.957 17.936 161.389 17.936C159.789 17.936 158.461 18.512 157.405 19.664C156.349 20.784 155.821 22.432 155.821 24.608C155.821 26.752 156.333 28.4 157.357 29.552C158.413 30.704 159.725 31.28 161.293 31.28ZM193.104 18.032H188.688V38H180.48V18.032H177.504V11.216H180.48V10.448C180.48 7.152 181.424 4.656 183.312 2.96C185.2 1.232 187.968 0.367998 191.616 0.367998C192.224 0.367998 192.672 0.383998 192.96 0.415998V7.376C191.392 7.28 190.288 7.504 189.648 8.048C189.008 8.592 188.688 9.568 188.688 10.976V11.216H193.104V18.032ZM222.06 31.04V38H217.884C214.908 38 212.588 37.28 210.924 35.84C209.26 34.368 208.428 31.984 208.428 28.688V18.032H205.164V11.216H208.428V4.688H216.636V11.216H222.012V18.032H216.636V28.784C216.636 29.584 216.828 30.16 217.212 30.512C217.596 30.864 218.236 31.04 219.132 31.04H222.06ZM243.096 10.928C246.168 10.928 248.632 11.952 250.488 14C252.344 16.016 253.272 18.8 253.272 22.352V38H245.112V23.456C245.112 21.664 244.648 20.272 243.72 19.28C242.792 18.288 241.544 17.792 239.976 17.792C238.408 17.792 237.16 18.288 236.232 19.28C235.304 20.272 234.84 21.664 234.84 23.456V38H226.632V2.48H234.84V14.816C235.672 13.632 236.808 12.688 238.248 11.984C239.688 11.28 241.304 10.928 243.096 10.928ZM284.224 24.176C284.224 24.944 284.176 25.744 284.08 26.576H265.504C265.632 28.24 266.16 29.52 267.088 30.416C268.048 31.28 269.216 31.712 270.592 31.712C272.64 31.712 274.064 30.848 274.864 29.12H283.6C283.152 30.88 282.336 32.464 281.152 33.872C280 35.28 278.544 36.384 276.784 37.184C275.024 37.984 273.056 38.384 270.88 38.384C268.256 38.384 265.92 37.824 263.872 36.704C261.824 35.584 260.224 33.984 259.072 31.904C257.92 29.824 257.344 27.392 257.344 24.608C257.344 21.824 257.904 19.392 259.024 17.312C260.176 15.232 261.776 13.632 263.824 12.512C265.872 11.392 268.224 10.832 270.88 10.832C273.472 10.832 275.776 11.376 277.792 12.464C279.808 13.552 281.376 15.104 282.496 17.12C283.648 19.136 284.224 21.488 284.224 24.176ZM275.824 22.016C275.824 20.608 275.344 19.488 274.384 18.656C273.424 17.824 272.224 17.408 270.784 17.408C269.408 17.408 268.24 17.808 267.28 18.608C266.352 19.408 265.776 20.544 265.552 22.016H275.824ZM297.094 24.56C297.094 21.808 297.606 19.392 298.63 17.312C299.686 15.232 301.11 13.632 302.902 12.512C304.694 11.392 306.694 10.832 308.902 10.832C310.662 10.832 312.262 11.2 313.702 11.936C315.174 12.672 316.326 13.664 317.158 14.912V2.48H325.366V38H317.158V34.16C316.39 35.44 315.286 36.464 313.846 37.232C312.438 38 310.79 38.384 308.902 38.384C306.694 38.384 304.694 37.824 302.902 36.704C301.11 35.552 299.686 33.936 298.63 31.856C297.606 29.744 297.094 27.312 297.094 24.56ZM317.158 24.608C317.158 22.56 316.582 20.944 315.43 19.76C314.31 18.576 312.934 17.984 311.302 17.984C309.67 17.984 308.278 18.576 307.126 19.76C306.006 20.912 305.446 22.512 305.446 24.56C305.446 26.608 306.006 28.24 307.126 29.456C308.278 30.64 309.67 31.232 311.302 31.232C312.934 31.232 314.31 30.64 315.43 29.456C316.582 28.272 317.158 26.656 317.158 24.608ZM329.672 24.56C329.672 21.808 330.184 19.392 331.208 17.312C332.264 15.232 333.688 13.632 335.48 12.512C337.272 11.392 339.272 10.832 341.48 10.832C343.368 10.832 345.016 11.216 346.424 11.984C347.864 12.752 348.968 13.76 349.736 15.008V11.216H357.944V38H349.736V34.208C348.936 35.456 347.816 36.464 346.376 37.232C344.968 38 343.32 38.384 341.432 38.384C339.256 38.384 337.272 37.824 335.48 36.704C333.688 35.552 332.264 33.936 331.208 31.856C330.184 29.744 329.672 27.312 329.672 24.56ZM349.736 24.608C349.736 22.56 349.16 20.944 348.008 19.76C346.888 18.576 345.512 17.984 343.88 17.984C342.248 17.984 340.856 18.576 339.704 19.76C338.584 20.912 338.024 22.512 338.024 24.56C338.024 26.608 338.584 28.24 339.704 29.456C340.856 30.64 342.248 31.232 343.88 31.232C345.512 31.232 346.888 30.64 348.008 29.456C349.16 28.272 349.736 26.656 349.736 24.608ZM391.242 11.216L374.442 50.72H365.61L371.754 37.088L360.858 11.216H370.026L376.218 27.968L382.362 11.216H391.242Z" fill="black"/>
</svg>
