<svg width="481" height="49" viewBox="0 0 481 49" fill="none" xmlns="http://www.w3.org/2000/svg">
<path d="M36.568 2.88V12.864H24.536V48H11.992V12.864H0.0880001V2.88H36.568ZM64.825 11.776C68.921 11.776 72.1637 13.1627 74.553 15.936C76.985 18.6667 78.201 22.3787 78.201 27.072V48H65.657V28.736C65.657 26.688 65.1237 25.088 64.057 23.936C62.9903 22.7413 61.561 22.144 59.769 22.144C57.8917 22.144 56.4197 22.7413 55.353 23.936C54.2863 25.088 53.753 26.688 53.753 28.736V48H41.209V0.639999H53.753V17.216C54.8623 15.5947 56.3557 14.2933 58.233 13.312C60.153 12.288 62.3503 11.776 64.825 11.776ZM119.388 29.632C119.388 30.6133 119.324 31.5947 119.196 32.576H95.452C95.58 34.5387 96.1133 36.0107 97.052 36.992C98.0333 37.9307 99.2707 38.4 100.764 38.4C102.855 38.4 104.348 37.4613 105.244 35.584H118.62C118.065 38.0587 116.977 40.2773 115.356 42.24C113.777 44.16 111.772 45.6747 109.34 46.784C106.908 47.8933 104.22 48.448 101.276 48.448C97.7347 48.448 94.5773 47.7013 91.804 46.208C89.0733 44.7147 86.9187 42.5813 85.34 39.808C83.804 37.0347 83.036 33.7707 83.036 30.016C83.036 26.2613 83.804 23.0187 85.34 20.288C86.876 17.5147 89.0093 15.3813 91.74 13.888C94.5133 12.3947 97.692 11.648 101.276 11.648C104.817 11.648 107.953 12.3733 110.684 13.824C113.415 15.2747 115.548 17.3653 117.084 20.096C118.62 22.784 119.388 25.9627 119.388 29.632ZM106.588 26.496C106.588 24.96 106.076 23.7653 105.052 22.912C104.028 22.016 102.748 21.568 101.212 21.568C99.676 21.568 98.4173 21.9947 97.436 22.848C96.4547 23.6587 95.8147 24.8747 95.516 26.496H106.588ZM167.364 2.88V12.864H149.316V20.8H162.628V30.336H149.316V48H136.772V2.88H167.364ZM189.351 48.448C185.767 48.448 182.545 47.7013 179.687 46.208C176.871 44.7147 174.652 42.5813 173.031 39.808C171.409 37.0347 170.599 33.7707 170.599 30.016C170.599 26.304 171.409 23.0613 173.031 20.288C174.695 17.5147 176.935 15.3813 179.751 13.888C182.609 12.3947 185.831 11.648 189.415 11.648C192.999 11.648 196.199 12.3947 199.015 13.888C201.873 15.3813 204.113 17.5147 205.735 20.288C207.399 23.0613 208.231 26.304 208.231 30.016C208.231 33.728 207.399 36.992 205.735 39.808C204.113 42.5813 201.873 44.7147 199.015 46.208C196.156 47.7013 192.935 48.448 189.351 48.448ZM189.351 37.568C191.1 37.568 192.551 36.928 193.703 35.648C194.897 34.3253 195.495 32.448 195.495 30.016C195.495 27.584 194.897 25.728 193.703 24.448C192.551 23.168 191.121 22.528 189.415 22.528C187.708 22.528 186.279 23.168 185.127 24.448C183.975 25.728 183.399 27.584 183.399 30.016C183.399 32.4907 183.953 34.368 185.062 35.648C186.172 36.928 187.601 37.568 189.351 37.568ZM230.038 48.448C226.454 48.448 223.233 47.7013 220.374 46.208C217.558 44.7147 215.339 42.5813 213.718 39.808C212.097 37.0347 211.286 33.7707 211.286 30.016C211.286 26.304 212.097 23.0613 213.718 20.288C215.382 17.5147 217.622 15.3813 220.438 13.888C223.297 12.3947 226.518 11.648 230.102 11.648C233.686 11.648 236.886 12.3947 239.702 13.888C242.561 15.3813 244.801 17.5147 246.422 20.288C248.086 23.0613 248.918 26.304 248.918 30.016C248.918 33.728 248.086 36.992 246.422 39.808C244.801 42.5813 242.561 44.7147 239.702 46.208C236.843 47.7013 233.622 48.448 230.038 48.448ZM230.038 37.568C231.787 37.568 233.238 36.928 234.39 35.648C235.585 34.3253 236.182 32.448 236.182 30.016C236.182 27.584 235.585 25.728 234.39 24.448C233.238 23.168 231.809 22.528 230.102 22.528C228.395 22.528 226.966 23.168 225.814 24.448C224.662 25.728 224.086 27.584 224.086 30.016C224.086 32.4907 224.641 34.368 225.75 35.648C226.859 36.928 228.289 37.568 230.038 37.568ZM251.974 30.016C251.974 26.304 252.635 23.0613 253.958 20.288C255.323 17.5147 257.179 15.3813 259.526 13.888C261.872 12.3947 264.475 11.648 267.333 11.648C269.638 11.648 271.686 12.1387 273.478 13.12C275.312 14.0587 276.742 15.36 277.766 17.024V0.639999H290.374V48H277.766V43.008C276.784 44.672 275.398 45.9947 273.606 46.976C271.814 47.9573 269.702 48.448 267.27 48.448C264.411 48.448 261.808 47.7013 259.462 46.208C257.158 44.7147 255.323 42.5813 253.958 39.808C252.635 36.992 251.974 33.728 251.974 30.016ZM277.83 30.016C277.83 27.712 277.19 25.8987 275.91 24.576C274.672 23.2533 273.136 22.592 271.302 22.592C269.424 22.592 267.867 23.2533 266.63 24.576C265.392 25.856 264.774 27.6693 264.774 30.016C264.774 32.32 265.392 34.1547 266.63 35.52C267.867 36.8427 269.424 37.504 271.302 37.504C273.136 37.504 274.672 36.8427 275.91 35.52C277.19 34.1973 277.83 32.3627 277.83 30.016ZM326.796 48.448C321.548 48.448 317.238 47.2107 313.868 44.736C310.497 42.2187 308.684 38.6347 308.428 33.984H321.804C321.932 35.5627 322.401 36.7147 323.212 37.44C324.022 38.1653 325.068 38.528 326.348 38.528C327.5 38.528 328.438 38.2507 329.164 37.696C329.932 37.0987 330.316 36.288 330.316 35.264C330.316 33.9413 329.697 32.9173 328.46 32.192C327.222 31.4667 325.217 30.656 322.444 29.76C319.5 28.7787 317.11 27.84 315.276 26.944C313.484 26.0053 311.905 24.6613 310.54 22.912C309.217 21.12 308.556 18.7947 308.556 15.936C308.556 13.0347 309.281 10.56 310.732 8.512C312.182 6.42133 314.188 4.84267 316.748 3.776C319.308 2.70933 322.209 2.176 325.452 2.176C330.7 2.176 334.881 3.41333 337.996 5.888C341.153 8.32 342.838 11.7547 343.052 16.192H329.42C329.377 14.8267 328.95 13.8027 328.14 13.12C327.372 12.4373 326.369 12.096 325.132 12.096C324.193 12.096 323.425 12.3733 322.828 12.928C322.23 13.4827 321.932 14.272 321.932 15.296C321.932 16.1493 322.252 16.896 322.892 17.536C323.574 18.1333 324.406 18.6667 325.388 19.136C326.369 19.5627 327.82 20.1173 329.74 20.8C332.598 21.7813 334.945 22.7627 336.78 23.744C338.657 24.6827 340.257 26.0267 341.58 27.776C342.945 29.4827 343.628 31.6587 343.628 34.304C343.628 36.992 342.945 39.4027 341.58 41.536C340.257 43.6693 338.316 45.3547 335.756 46.592C333.238 47.8293 330.252 48.448 326.796 48.448ZM370.643 37.312V48H365.203C356.03 48 351.443 43.456 351.443 34.368V22.528H347.027V12.096H351.443V3.392H364.051V12.096H370.579V22.528H364.051V34.56C364.051 35.5413 364.264 36.2453 364.691 36.672C365.16 37.0987 365.928 37.312 366.995 37.312H370.643ZM393.101 48.448C389.517 48.448 386.295 47.7013 383.437 46.208C380.621 44.7147 378.402 42.5813 376.781 39.808C375.159 37.0347 374.349 33.7707 374.349 30.016C374.349 26.304 375.159 23.0613 376.781 20.288C378.445 17.5147 380.685 15.3813 383.501 13.888C386.359 12.3947 389.581 11.648 393.165 11.648C396.749 11.648 399.949 12.3947 402.765 13.888C405.623 15.3813 407.863 17.5147 409.485 20.288C411.149 23.0613 411.981 26.304 411.981 30.016C411.981 33.728 411.149 36.992 409.485 39.808C407.863 42.5813 405.623 44.7147 402.765 46.208C399.906 47.7013 396.685 48.448 393.101 48.448ZM393.101 37.568C394.85 37.568 396.301 36.928 397.453 35.648C398.647 34.3253 399.245 32.448 399.245 30.016C399.245 27.584 398.647 25.728 397.453 24.448C396.301 23.168 394.871 22.528 393.165 22.528C391.458 22.528 390.029 23.168 388.877 24.448C387.725 25.728 387.149 27.584 387.149 30.016C387.149 32.4907 387.703 34.368 388.812 35.648C389.922 36.928 391.351 37.568 393.101 37.568ZM429.628 18.432C431.036 16.384 432.743 14.7627 434.748 13.568C436.753 12.3733 438.908 11.776 441.212 11.776V25.152H437.692C434.961 25.152 432.935 25.6853 431.612 26.752C430.289 27.8187 429.628 29.6747 429.628 32.32V48H417.084V12.096H429.628V18.432ZM480.013 29.632C480.013 30.6133 479.949 31.5947 479.821 32.576H456.077C456.205 34.5387 456.738 36.0107 457.677 36.992C458.658 37.9307 459.896 38.4 461.389 38.4C463.48 38.4 464.973 37.4613 465.869 35.584H479.245C478.69 38.0587 477.602 40.2773 475.981 42.24C474.402 44.16 472.397 45.6747 469.965 46.784C467.533 47.8933 464.845 48.448 461.901 48.448C458.36 48.448 455.202 47.7013 452.429 46.208C449.698 44.7147 447.544 42.5813 445.965 39.808C444.429 37.0347 443.661 33.7707 443.661 30.016C443.661 26.2613 444.429 23.0187 445.965 20.288C447.501 17.5147 449.634 15.3813 452.365 13.888C455.138 12.3947 458.317 11.648 461.901 11.648C465.442 11.648 468.578 12.3733 471.309 13.824C474.04 15.2747 476.173 17.3653 477.709 20.096C479.245 22.784 480.013 25.9627 480.013 29.632ZM467.213 26.496C467.213 24.96 466.701 23.7653 465.677 22.912C464.653 22.016 463.373 21.568 461.837 21.568C460.301 21.568 459.042 21.9947 458.061 22.848C457.08 23.6587 456.44 24.8747 456.141 26.496H467.213Z" fill="black"/>
</svg>
