<svg width="64" height="64" viewBox="0 0 64 64" fill="none" xmlns="http://www.w3.org/2000/svg">
<path d="M58.24 46.543C60.712 42.0949 62.0063 37.0888 62 32C62 15.432 48.568 1.99999 32 1.99999C26.9119 1.99369 21.9066 3.28761 17.459 5.75899L15.26 3.56099C14.2592 2.56208 12.903 2.00106 11.489 2.00106C10.075 2.00106 8.7188 2.56208 7.71802 3.56099L3.56002 7.71699C2.56105 8.71794 2.00001 10.0743 2.00001 11.4885C2.00001 12.9026 2.56105 14.259 3.56002 15.26L5.75902 17.459C3.28765 21.9066 1.99372 26.9119 2.00002 32C2.00002 48.568 15.43 62 32 62C37.0883 62.0064 42.0937 60.7121 46.541 58.24L48.74 60.439C49.741 61.438 51.0974 61.999 52.5115 61.999C53.9257 61.999 55.2821 61.438 56.283 60.439L60.439 56.283C61.438 55.282 61.999 53.9257 61.999 52.5115C61.999 51.0973 61.438 49.7409 60.439 48.74L58.24 46.543ZM6.70202 12.117C6.5358 11.9499 6.4425 11.7237 6.4425 11.488C6.4425 11.2523 6.5358 11.0261 6.70202 10.859L10.86 6.70099C11.0269 6.53459 11.2529 6.44114 11.4885 6.44114C11.7242 6.44114 11.9502 6.53459 12.117 6.70099L13.672 8.25699C11.6446 9.82493 9.82496 11.6446 8.25702 13.672L6.70202 12.117ZM32 55.438C19.057 55.438 8.56302 44.945 8.56302 32C8.56302 19.056 19.057 8.56299 32 8.56299C44.943 8.56299 55.438 19.056 55.438 32C55.438 44.945 44.943 55.438 32 55.438ZM57.299 53.141L53.139 57.299C52.9722 57.4651 52.7464 57.5583 52.511 57.5583C52.2756 57.5583 52.0498 57.4651 51.883 57.299L50.328 55.742C52.3556 54.1749 54.1749 52.3556 55.742 50.328L57.299 51.883C57.4652 52.0501 57.5585 52.2763 57.5585 52.512C57.5585 52.7477 57.4652 52.9739 57.299 53.141Z" fill="black"/>
<path d="M41.563 31.034C44.344 36.887 45.641 38.84 50.618 34.816C55.591 30.795 57.897 21.074 39.593 11.349C34.616 8.70501 26.665 13.714 27.562 17.934C28.461 22.156 38.787 25.183 41.563 31.034ZM50.645 26.182C54.041 26.182 48.559 28.043 45.291 30.865C43.707 32.233 44.469 26.182 50.645 26.182ZM46.113 18.691C49.511 18.691 44.029 20.549 40.761 23.373C39.182 24.739 39.934 18.691 46.113 18.691ZM38.807 13.811C42.202 13.811 36.719 15.672 33.457 18.49C31.871 19.858 32.629 13.811 38.807 13.811ZM42.402 42.969C38.343 45.856 35.853 49.276 36.828 50.612C38.584 53.026 38.584 53.026 45.93 47.798C49.983 44.915 52.479 41.491 51.504 40.157C49.74 37.744 49.74 37.744 42.402 42.969ZM42.545 41.646C44.397 41.718 43.242 40 43.455 37.837C43.664 35.673 41.904 36.782 38.588 36.589C35.268 36.396 36.233 39.009 36.367 41.097C36.502 43.184 37.777 41.469 42.545 41.646Z" fill="black"/>
<path d="M30.371 43.256C29.239 42.551 28.282 41.588 27.43 40.502C28.198 40.813 29.131 40.992 30.097 41.176C30.516 41.256 30.935 41.336 31.331 41.426C31.764 41.526 32.099 41.572 32.384 41.572C33.938 41.572 34.108 40.254 34.21 39.465C34.302 38.752 34.429 37.774 35.069 36.483C35.405 35.801 35.289 35.286 35.132 34.973C34.72 34.145 33.744 33.959 32.51 33.725C31.822 33.594 31.042 33.446 30.266 33.178C29.704 32.984 29.261 32.894 28.87 32.894C27.372 32.894 26.999 34.15 26.726 35.066C26.568 35.597 26.389 36.201 26.036 36.863C25.8604 37.187 25.7407 37.5382 25.682 37.902C23.43 34.086 21.847 29.852 19.177 28.869C19.115 28.847 19.05 28.84 18.988 28.821C19.032 28.724 19.06 28.637 19.11 28.536C19.446 27.855 19.33 27.339 19.173 27.026C18.857 26.392 18.21 26.135 17.371 25.944C18.346 25.025 19.636 23.669 21.466 21.739C21.609 21.589 21.743 21.439 21.88 21.288C21.775 21.556 21.65 21.837 21.493 22.129C20.951 23.145 21.25 23.754 21.96 24.164C21.461 24.319 21.102 24.57 20.939 24.932C19.609 27.886 19.609 27.886 28.423 31.998C33.286 34.268 37.829 34.785 38.566 33.156C39.898 30.195 39.898 30.195 31.082 26.087C29.9824 25.5711 28.8496 25.1295 27.691 24.765C27.859 24.063 27.797 22.749 28.75 20.832C29.416 19.48 27.018 19.777 24.518 18.918C24.288 18.838 24.092 18.788 23.914 18.75C25.72 16.146 26.449 13.848 25.554 13.016C23.322 10.947 23.322 10.947 17.003 17.604C14.383 20.362 12.722 23.233 12.57 24.984C11.363 25.166 11.019 26.279 10.769 27.118C10.611 27.65 10.432 28.253 10.079 28.916C9.62298 29.771 9.55698 30.549 9.88298 31.229C10.19 31.869 10.769 32.274 11.495 32.564C10.415 34.24 9.93898 36.213 10.676 38.025C17.781 55.505 28.009 55.269 32.845 51.713C37.684 48.158 35.895 46.693 30.371 43.256ZM13.402 39.273C14.334 33.959 20.595 34.396 18.966 35.509C15.607 37.813 12.885 42.191 13.402 39.273ZM22.369 41.619C19.01 43.922 16.291 48.297 16.805 45.383C17.74 40.064 24 40.502 22.369 41.619ZM28.41 46.088C25.051 48.391 22.334 52.768 22.846 49.854C23.783 44.537 30.039 44.975 28.41 46.088Z" fill="black"/>
</svg>
