<svg width="64" height="64" viewBox="0 0 64 64" fill="none" xmlns="http://www.w3.org/2000/svg">
<path d="M60.645 30.119C59.866 24.725 59.741 22.858 59.784 22.263C59.884 22.037 60.196 21.567 60.409 21.249C61.119 20.189 62 18.871 62 17.244C62 10.269 52.717 4 40.439 4C30.229 4 19.691 7.666 12.265 11.813C10.8337 12.5179 9.47436 13.3602 8.206 14.328C8.19072 14.3389 8.17504 14.3492 8.159 14.359C8.156 14.361 8.157 14.365 8.155 14.368C4.343 17.309 2 21.042 2 24.434C2 26.061 2.881 27.379 3.592 28.439C3.807 28.76 4.123 29.235 4.219 29.459C4.264 30.002 4.147 31.848 3.356 37.311C3.303 37.684 3.258 37.986 3.229 38.195C1.782 48.799 2.041 53.86 4.19 56.875C6.041 59.469 8.992 60 12.855 60C14.197 60 15.718 59.937 17.328 59.871C19.346 59.787 21.631 59.693 24.162 59.693C26.693 59.693 28.98 59.787 30.996 59.871C32.607 59.938 34.127 60 35.469 60C36.186 60 36.859 59.973 37.511 59.926L37.508 59.937C37.705 59.937 37.928 59.913 38.164 59.879C39.916 59.695 41.412 59.263 42.63 58.386C49.122 55.514 58.42 49.48 59.811 47.528C61.961 44.514 62.221 41.608 60.772 31.005C60.742 30.796 60.697 30.492 60.645 30.119ZM43.311 38.54C45.637 55.561 43.508 57.844 35.469 57.844C32.52 57.844 28.774 57.536 24.162 57.536C19.55 57.536 15.805 57.844 12.855 57.844C4.818 57.844 2.689 55.559 5.013 38.54C5.22 37.039 6.245 30.46 5.984 28.971C5.759 27.692 3.808 25.985 3.808 24.434C3.808 18.831 12.921 11.189 24.162 11.189C35.403 11.189 44.516 18.832 44.516 24.434C44.516 25.985 42.565 27.692 42.34 28.971C42.078 30.46 43.105 37.039 43.311 38.54Z" fill="black"/>
</svg>
